<svg width="100%" viewBox="0 0 680 340" xmlns="http://www.w3.org/2000/svg">
<defs>
  <marker id="arrow" viewBox="0 0 10 10" refX="8" refY="5" markerWidth="6" markerHeight="6" orient="auto-start-reverse">
    <path d="M2 1L8 5L2 9" fill="none" stroke="context-stroke" stroke-width="1.5" stroke-linecap="round" stroke-linejoin="round"/>
  </marker>
</defs>

<rect width="680" height="340" fill="#0d1117" rx="12"/>

<!-- Grid lines background -->
<g stroke="#1e2d40" stroke-width="0.5" opacity="0.6">
  <line x1="0" y1="40" x2="680" y2="40"/>
  <line x1="0" y1="80" x2="680" y2="80"/>
  <line x1="0" y1="120" x2="680" y2="120"/>
  <line x1="0" y1="160" x2="680" y2="160"/>
  <line x1="0" y1="200" x2="680" y2="200"/>
  <line x1="0" y1="240" x2="680" y2="240"/>
  <line x1="0" y1="280" x2="680" y2="280"/>
  <line x1="40" y1="0" x2="40" y2="340"/>
  <line x1="120" y1="0" x2="120" y2="340"/>
  <line x1="200" y1="0" x2="200" y2="340"/>
  <line x1="280" y1="0" x2="280" y2="340"/>
  <line x1="360" y1="0" x2="360" y2="340"/>
  <line x1="440" y1="0" x2="440" y2="340"/>
  <line x1="520" y1="0" x2="520" y2="340"/>
  <line x1="600" y1="0" x2="600" y2="340"/>
</g>

<!-- Left accent bar -->
<rect x="40" y="80" width="4" height="180" fill="#238636" rx="2"/>

<!-- Shield icon (simple) -->
<path d="M68 95 L88 95 L88 115 Q88 125 78 130 Q68 125 68 115 Z" fill="none" stroke="#238636" stroke-width="2"/>
<path d="M74 112 L77 115 L83 108" fill="none" stroke="#238636" stroke-width="2" stroke-linecap="round" stroke-linejoin="round"/>

<!-- Main title -->
<text x="100" y="112" font-family="monospace" font-size="28" font-weight="700" fill="#e6edf3">CFSS SOC</text>
<text x="100" y="142" font-family="monospace" font-size="28" font-weight="700" fill="#238636">Analyst Lab</text>

<!-- Subtitle -->
<text x="100" y="170" font-family="monospace" font-size="13" fill="#8b949e">Threat Detection · Incident Response · SIEM Operations</text>

<!-- Divider -->
<line x1="40" y1="190" x2="640" y2="190" stroke="#21262d" stroke-width="1"/>

<!-- Tool pills -->
<rect x="40" y="205" width="80" height="26" rx="4" fill="#1a2332" stroke="#2d7d46" stroke-width="1"/>
<text x="80" y="223" font-family="monospace" font-size="12" fill="#3fb950" text-anchor="middle">Splunk</text>

<rect x="130" y="205" width="76" height="26" rx="4" fill="#1a2332" stroke="#1f6feb" stroke-width="1"/>
<text x="168" y="223" font-family="monospace" font-size="12" fill="#58a6ff" text-anchor="middle">Sysmon</text>

<rect x="216" y="205" width="86" height="26" rx="4" fill="#1a2332" stroke="#1f6feb" stroke-width="1"/>
<text x="259" y="223" font-family="monospace" font-size="12" fill="#58a6ff" text-anchor="middle">Wireshark</text>

<rect x="312" y="205" width="90" height="26" rx="4" fill="#1a2332" stroke="#b44f56" stroke-width="1"/>
<text x="357" y="223" font-family="monospace" font-size="12" fill="#f85149" text-anchor="middle">Kali Linux</text>

<rect x="412" y="205" width="98" height="26" rx="4" fill="#1a2332" stroke="#9e6a03" stroke-width="1"/>
<text x="461" y="223" font-family="monospace" font-size="12" fill="#d29922" text-anchor="middle">VirusTotal</text>

<rect x="520" y="205" width="84" height="26" rx="4" fill="#1a2332" stroke="#6e40c9" stroke-width="1"/>
<text x="562" y="223" font-family="monospace" font-size="12" fill="#bc8cff" text-anchor="middle">CyberChef</text>

<!-- Divider -->
<line x1="40" y1="248" x2="640" y2="248" stroke="#21262d" stroke-width="1"/>

<!-- Task badges row -->
<text x="40" y="270" font-family="monospace" font-size="11" fill="#8b949e">Tasks: </text>

<rect x="90" y="256" width="120" height="22" rx="3" fill="#161b22" stroke="#21262d" stroke-width="1"/>
<text x="150" y="271" font-family="monospace" font-size="11" fill="#3fb950" text-anchor="middle">Log Ingestion</text>

<rect x="220" y="256" width="140" height="22" rx="3" fill="#161b22" stroke="#21262d" stroke-width="1"/>
<text x="290" y="271" font-family="monospace" font-size="11" fill="#58a6ff" text-anchor="middle">Network Detection</text>

<rect x="370" y="256" width="130" height="22" rx="3" fill="#161b22" stroke="#21262d" stroke-width="1"/>
<text x="435" y="271" font-family="monospace" font-size="11" fill="#d29922" text-anchor="middle">Threat Hunting</text>

<rect x="510" y="256" width="130" height="22" rx="3" fill="#161b22" stroke="#21262d" stroke-width="1"/>
<text x="575" y="271" font-family="monospace" font-size="11" fill="#f85149" text-anchor="middle">Incident Response</text>

<!-- Bottom bar -->
<rect x="40" y="300" width="600" height="1" fill="#21262d"/>

<!-- MITRE badge -->
<text x="40" y="322" font-family="monospace" font-size="11" fill="#8b949e">MITRE ATT&amp;CK Mapped  ·  NIST IR Framework  ·  VirtualBox Lab Environment</text>

<!-- Top right corner decoration -->
<circle cx="620" cy="60" r="40" fill="none" stroke="#238636" stroke-width="0.5" opacity="0.3"/>
<circle cx="620" cy="60" r="28" fill="none" stroke="#238636" stroke-width="0.5" opacity="0.5"/>
<circle cx="620" cy="60" r="16" fill="none" stroke="#238636" stroke-width="1" opacity="0.7"/>
<circle cx="620" cy="60" r="4" fill="#238636" opacity="0.9"/>
<!-- Crosshair lines -->
<line x1="600" y1="60" x2="610" y2="60" stroke="#238636" stroke-width="1" opacity="0.7"/>
<line x1="630" y1="60" x2="640" y2="60" stroke="#238636" stroke-width="1" opacity="0.7"/>
<line x1="620" y1="40" x2="620" y2="50" stroke="#238636" stroke-width="1" opacity="0.7"/>
<line x1="620" y1="70" x2="620" y2="80" stroke="#238636" stroke-width="1" opacity="0.7"/>
</svg>